<?xml version="1.0" ?><!DOCTYPE svg  PUBLIC '-//W3C//DTD SVG 1.1//EN'  'http://www.w3.org/Graphics/SVG/1.1/DTD/svg11.dtd'><svg enable-background="new 0 0 128 128" height="128px" id="Layer_1" version="1.1" viewBox="0 0 128 128" width="128px" xml:space="preserve" xmlns="http://www.w3.org/2000/svg" xmlns:xlink="http://www.w3.org/1999/xlink"><g><path d="M100.198,34.291c-0.025-1.017-0.498-1.888-1.038-2.686c-4.588-6.774-18.163-12.529-35.173-12.529   c-17.069,0-30.722,5.757-35.211,12.604c-0.511,0.779-0.951,1.629-0.975,2.612l-1.432,58.71c0,0.01,0.002,0.02,0.002,0.03   l-0.002,0.077c-0.057,2.355,1.623,5.088,3.735,6.133l15.537,7.708c2.112,1.045,5.767,1.976,8.124,1.976h20.468   c2.356,0,6.012-0.929,8.124-1.973l15.537-7.732c2.112-1.045,3.793-3.841,3.735-6.196L100.198,34.291z M89.001,66.913l-12.668,2.753   l-6.102,1.326l-1.869-3.7l20.39-10.63L89.001,66.913z M60.999,30.974h5.991l6.68,17.776h-5.752l-0.889-2.934h-6.236l-0.866,2.934   h-5.608L60.999,30.974z M39.248,56.661l20.39,10.63l-1.869,3.7l-18.77-4.079L39.248,56.661z M95.153,93.882l-15.468,7.698   c-1.173,0.58-3.432,1.175-4.884,1.315c0.02-0.442,0.018-0.92-0.071-1.126c-0.463-1.073-1.686-3.11-2.876-4.441   c-1.594-1.783-1.728-2.244-4.242-2.244c-0.708,0-3.078,0-3.53,0c0,0-0.068,0-0.161,0c-0.452,0-2.822,0-3.53,0   c-2.348,0-2.648,0.462-4.242,2.244c-1.19,1.331-2.413,3.368-2.876,4.441c-0.089,0.206-0.092,0.684-0.071,1.126   c-1.451-0.14-3.711-0.736-4.897-1.323l-15.531-7.706c-0.1-0.084-0.344-0.473-0.401-0.705l0.377-15.472l3.497,3.074l2.198,0.769   l19.427-4.073l3.377-3.642l2.748-1H64l2.748,1l3.377,3.642l19.427,4.073l2.198-0.769l3.505-3.081l0.375,15.403   C95.577,93.318,95.334,93.724,95.153,93.882z"/><polygon points="63.927,35.582 61.985,41.972 65.889,41.972  "/></g></svg>